<svg xmlns="http://www.w3.org/2000/svg" width="64" height="64" viewBox="0 0 64 64" fill="none"><path d="M50 57V62H34V61V57H36H48H50Z" fill="#BDDBFF"></path><path d="M30 61V62H14V57H16H28H30V61Z" fill="#BDDBFF"></path><path d="M56.59 38.04C57.0402 37.6583 57.4001 37.1815 57.6438 36.6439C57.8875 36.1064 58.0089 35.5215 57.9994 34.9313C57.9898 34.3412 57.8495 33.7605 57.5885 33.2312C57.3275 32.7018 56.9523 32.2369 56.49 31.87C57.6926 31.0099 58.5352 29.7361 58.8563 28.2929C59.1775 26.8498 58.9544 25.3388 58.23 24.05C59.3208 23.3502 60.1556 22.3161 60.6097 21.1023C61.0638 19.8886 61.1127 18.5604 60.7491 17.3166C60.3855 16.0727 59.6289 14.98 58.5926 14.2019C57.5563 13.4238 56.2959 13.0022 55 13V2H11V18C9.95206 18.0012 8.92262 18.2765 8.01396 18.7986C7.1053 19.3207 6.34905 20.0715 5.82031 20.9763C5.29157 21.8811 5.00875 22.9085 4.99993 23.9564C4.99111 25.0044 5.2566 26.0364 5.77004 26.95C4.67931 27.6498 3.84447 28.6839 3.39039 29.8977C2.93632 31.1114 2.88741 32.4396 3.251 33.6834C3.61459 34.9273 4.37113 36.02 5.40744 36.7981C6.44375 37.5762 7.70413 37.9978 9.00004 38C8.16051 38.6296 7.54037 39.5075 7.22747 40.5092C6.91457 41.5108 6.92477 42.5856 7.25662 43.5811C7.58848 44.5767 8.22516 45.4426 9.07649 46.0562C9.92781 46.6698 10.9506 47 12 47V37.19C12.0989 37.143 12.1927 37.086 12.28 37.02C12.1877 37.0034 12.0938 36.9967 12 37V26C12 25.2044 12.3161 24.4413 12.8787 23.8787C13.4413 23.3161 14.2044 23 15 23C15.7957 23 16.5588 23.3161 17.1214 23.8787C17.684 24.4413 18 25.2044 18 26V27C18.5255 26.9993 19.046 27.1024 19.5315 27.3031C20.0171 27.5039 20.4584 27.7985 20.8299 28.1701C21.2015 28.5417 21.4961 28.9829 21.6969 29.4685C21.8977 29.9541 22.0007 30.4745 22 31V32C22.5255 31.9993 23.046 32.1024 23.5315 32.3031C24.0171 32.5039 24.4584 32.7985 24.8299 33.1701C25.2015 33.5417 25.4961 33.9829 25.6969 34.4685C25.8977 34.9541 26.0007 35.4745 26 36V45.54L28 49V57H30V61H34V57H36V49L38 45.54V36C37.9994 35.4745 38.1024 34.9541 38.3032 34.4685C38.504 33.9829 38.7986 33.5417 39.1701 33.1701C39.5417 32.7985 39.9829 32.5039 40.4685 32.3031C40.9541 32.1024 41.4746 31.9993 42 32V31C41.9994 30.4745 42.1024 29.9541 42.3032 29.4685C42.504 28.9829 42.7986 28.5417 43.1701 28.1701C43.5417 27.7985 43.9829 27.5039 44.4685 27.3031C44.9541 27.1024 45.4746 26.9993 46 27V26C45.9979 25.2929 46.2472 24.6081 46.7033 24.0677C47.1594 23.5274 47.7926 23.1667 48.49 23.05C48.6575 23.0136 48.8287 22.9968 49 23C49.7957 23 50.5587 23.3161 51.1214 23.8787C51.684 24.4413 52 25.2044 52 26V46C52.4958 46.6629 53.1483 47.1923 53.8991 47.5408C54.6498 47.8893 55.4754 48.0459 56.3017 47.9967C57.1279 47.9475 57.929 47.6939 58.6331 47.2587C59.3372 46.8235 59.9222 46.2203 60.3357 45.5032C60.7491 44.7862 60.9781 43.9777 61.0021 43.1503C61.0261 42.3229 60.8443 41.5026 60.473 40.7628C60.1017 40.023 59.5526 39.387 58.8749 38.9117C58.1971 38.4365 57.4121 38.137 56.59 38.04Z" fill="#BDDBFF"></path><path d="M30 56H29V49C28.9984 48.8252 28.9538 48.6534 28.87 48.5L27 45.27V36C26.9983 34.6719 26.4696 33.3987 25.53 32.46C24.8355 31.7722 23.9568 31.2999 23 31.1V31C22.9983 29.6719 22.4696 28.3987 21.53 27.46C20.8355 26.7722 19.9568 26.2999 19 26.1V26C19 24.9391 18.5786 23.9217 17.8284 23.1716C17.0783 22.4214 16.0609 22 15 22C13.9391 22 12.9217 22.4214 12.1716 23.1716C11.4214 23.9217 11 24.9391 11 26V50C10.9995 50.2259 11.0772 50.445 11.22 50.62L15 55.35V56H14C13.7348 56 13.4804 56.1054 13.2929 56.2929C13.1054 56.4804 13 56.7348 13 57V62H15V58H29V62H31V57C31 56.7348 30.8946 56.4804 30.7071 56.2929C30.5196 56.1054 30.2652 56 30 56ZM23 33.17C23.4191 33.3206 23.801 33.5593 24.12 33.87C24.684 34.4353 25.0005 35.2014 25 36V41.8L23 38.34V33.17ZM19 28.17C19.4191 28.3207 19.801 28.5593 20.12 28.87C20.684 29.4353 21.0005 30.2014 21 31V35.36C20.4351 34.8683 19.741 34.549 19 34.44V28.17ZM27 56H17V55C17.0005 54.7741 16.9228 54.555 16.78 54.38L13 49.65V26C13 25.4696 13.2107 24.9609 13.5858 24.5858C13.9609 24.2107 14.4696 24 15 24C15.5304 24 16.0391 24.2107 16.4142 24.5858C16.7893 24.9609 17 25.4696 17 26V34.64C16.7946 34.7174 16.5942 34.8076 16.4 34.91C15.9447 35.173 15.5456 35.5232 15.2257 35.9405C14.9059 36.3579 14.6714 36.8342 14.5358 37.3423C14.4002 37.8503 14.3661 38.3801 14.4355 38.9014C14.5048 39.4226 14.6763 39.9251 14.94 40.38L19.94 49.04L21.67 48.04L16.67 39.38C16.5253 39.1524 16.4281 38.8978 16.3844 38.6316C16.3406 38.3655 16.3511 38.0932 16.4153 37.8312C16.4794 37.5692 16.5959 37.3229 16.7578 37.1071C16.9196 36.8913 17.1234 36.7105 17.3569 36.5755C17.5905 36.4405 17.8489 36.3542 18.1167 36.3216C18.3844 36.2891 18.656 36.3111 18.9151 36.3862C19.1741 36.4614 19.4153 36.5882 19.6241 36.759C19.8329 36.9297 20.005 37.141 20.13 37.38L27 49.27V56ZM49 22C47.9391 22 46.9217 22.4214 46.1716 23.1716C45.4214 23.9217 45 24.9391 45 26V26.1C43.8711 26.3314 42.8566 26.9453 42.1278 27.838C41.3991 28.7307 41.0007 29.8476 41 31V31.1C39.8711 31.3314 38.8566 31.9453 38.1278 32.838C37.3991 33.7307 37.0007 34.8476 37 36V45.27L35.13 48.5C35.0462 48.6534 35.0016 48.8252 35 49V56H34C33.7348 56 33.4804 56.1054 33.2929 56.2929C33.1054 56.4804 33 56.7348 33 57V62H35V58H49V62H51V57C51 56.7348 50.8946 56.4804 50.7071 56.2929C50.5196 56.1054 50.2652 56 50 56H49V55.35L52.78 50.62C52.9228 50.445 53.0005 50.2259 53 50V26C53 24.9391 52.5786 23.9217 51.8284 23.1716C51.0783 22.4214 50.0609 22 49 22ZM43 31C42.998 30.2061 43.3109 29.4437 43.87 28.88C44.1913 28.5649 44.5767 28.3227 45 28.17V34.44C44.259 34.549 43.5649 34.8683 43 35.36V31ZM39 36C38.998 35.2061 39.3109 34.4437 39.87 33.88C40.1913 33.5649 40.5767 33.3227 41 33.17V38.34L39 41.8V36ZM51 49.65L47.22 54.38C47.0772 54.555 46.9995 54.7741 47 55V56H37V49.27L43.87 37.38C43.995 37.141 44.1671 36.9297 44.3759 36.759C44.5847 36.5882 44.8259 36.4614 45.0849 36.3862C45.344 36.3111 45.6156 36.2891 45.8833 36.3216C46.1511 36.3542 46.4095 36.4405 46.6431 36.5755C46.8766 36.7105 47.0804 36.8913 47.2422 37.1071C47.4041 37.3229 47.5206 37.5692 47.5847 37.8312C47.6489 38.0932 47.6594 38.3655 47.6157 38.6316C47.5719 38.8978 47.4747 39.1524 47.33 39.38L42.33 48.04L44.06 49.04L49.06 40.38C49.3237 39.9251 49.4952 39.4226 49.5645 38.9014C49.6339 38.3801 49.5998 37.8503 49.4642 37.3423C49.3286 36.8342 49.0941 36.3579 48.7743 35.9405C48.4544 35.5232 48.0554 35.173 47.6 34.91C47.4058 34.8076 47.2054 34.7174 47 34.64V26C47 25.4696 47.2107 24.9609 47.5858 24.5858C47.9609 24.2107 48.4696 24 49 24C49.5304 24 50.0391 24.2107 50.4142 24.5858C50.7893 24.9609 51 25.4696 51 26V49.65Z" fill="#3D9AE2"></path><path d="M21 9H19V19H21V9Z" fill="#3D9AE2"></path><path d="M21 5H19V7H21V5Z" fill="#3D9AE2"></path><path d="M45 2H43V10H45V2Z" fill="#3D9AE2"></path><path d="M36 5H34V7H36V5Z" fill="#3D9AE2"></path><path d="M45 14H43V16H45V14Z" fill="#3D9AE2"></path><path d="M31 39H29V41H31V39Z" fill="#3D9AE2"></path><path d="M31 43H29V45H31V43Z" fill="#3D9AE2"></path><path d="M35 36H33V38H35V36Z" fill="#3D9AE2"></path><path d="M35 40H33V42H35V40Z" fill="#3D9AE2"></path><path d="M58.3431 37.479C58.8335 36.6185 59.0573 35.6317 58.9861 34.6437C58.9149 33.6558 58.5519 32.7113 57.9431 31.93C58.9166 30.9613 59.5825 29.7267 59.8572 28.3811C60.1318 27.0355 60.0031 25.6387 59.4871 24.366C60.5246 23.5002 61.2889 22.3522 61.6874 21.061C62.086 19.7698 62.1018 18.3908 61.7328 17.0908C61.3639 15.7908 60.626 14.6257 59.6086 13.7364C58.5911 12.847 57.3377 12.2717 56.0001 12.08V2H54.0001V16H56.0001V14.1C56.9738 14.3003 57.8656 14.7863 58.5618 15.496C59.2579 16.2056 59.7267 17.1066 59.9083 18.084C60.0899 19.0613 59.9761 20.0706 59.5813 20.983C59.1866 21.8953 58.5288 22.6693 57.6921 23.206C57.4765 23.3436 57.3219 23.5586 57.26 23.8067C57.198 24.0548 57.2335 24.3172 57.3591 24.54C57.9067 25.5161 58.1111 26.6476 57.9394 27.7536C57.7677 28.8595 57.2299 29.8759 56.4121 30.64C56.0472 30.431 55.6575 30.2687 55.2521 30.157L54.7521 32.093C55.16 32.1998 55.5416 32.3894 55.8731 32.65C56.2192 32.9248 56.5001 33.2728 56.6957 33.6692C56.8912 34.0655 56.9965 34.5002 57.0039 34.9421C57.0114 35.3839 56.9209 35.822 56.7388 36.2247C56.5568 36.6274 56.2877 36.9847 55.9511 37.271C55.8016 37.3966 55.6921 37.5632 55.6361 37.7503C55.5802 37.9373 55.5802 38.1367 55.6363 38.3238C55.6923 38.5108 55.8019 38.6774 55.9515 38.8029C56.1011 38.9284 56.2841 39.0073 56.4781 39.03C57.488 39.1544 58.4126 39.6589 59.0635 40.441C59.7145 41.223 60.043 42.2238 59.9821 43.2395C59.9211 44.2552 59.4754 45.2095 58.7356 45.9081C57.9959 46.6068 57.0176 46.9972 56.0001 47C55.7314 46.9998 55.4635 46.973 55.2001 46.92L54.8001 48.88C55.1951 48.9596 55.5971 48.9998 56.0001 49C57.3828 48.9986 58.7225 48.5197 59.7927 47.6443C60.863 46.7688 61.598 45.5507 61.8736 44.1957C62.1491 42.8408 61.9483 41.4323 61.305 40.2084C60.6616 38.9845 59.6154 38.0203 58.3431 37.479V37.479ZM9.60009 38.8C9.768 38.6741 9.89202 38.4985 9.9546 38.2982C10.0172 38.0978 10.0151 37.8829 9.94877 37.6838C9.8824 37.4847 9.75507 37.3115 9.5848 37.1888C9.41453 37.066 9.20997 37 9.00009 37C7.67449 36.9984 6.40365 36.4711 5.46631 35.5338C4.52897 34.5964 4.00168 33.3256 4.00009 32C3.99991 31.3217 4.13898 30.6506 4.40869 30.0283C4.67841 29.406 5.07302 28.8456 5.56809 28.382C6.37516 29.3953 7.44864 30.1637 8.66809 30.601L9.33509 28.715C8.30358 28.3513 7.41978 27.6595 6.81911 26.7454C6.21844 25.8314 5.93405 24.7456 6.00952 23.6545C6.08498 22.5634 6.51614 21.5271 7.23692 20.7044C7.9577 19.8818 8.92834 19.3182 10.0001 19.1V21H12.0001V6H10.0001V17.08C8.94761 17.2238 7.94219 17.6074 7.0613 18.2011C6.18041 18.7947 5.44755 19.5827 4.9192 20.5042C4.39085 21.4258 4.08109 22.4563 4.0138 23.5165C3.94652 24.5766 4.12349 25.638 4.53109 26.619C3.55782 27.4266 2.82172 28.483 2.40111 29.6757C1.9805 30.8684 1.89112 32.1529 2.14248 33.3923C2.39385 34.6318 2.97655 35.7799 3.82858 36.7146C4.68061 37.6492 5.77009 38.3354 6.98109 38.7C6.1168 40.0211 5.80686 41.6292 6.1182 43.1769C6.42954 44.7247 7.33718 46.0878 8.64509 46.972L9.76409 45.314C9.23561 44.9573 8.80007 44.4794 8.49377 43.9202C8.18746 43.361 8.01928 42.7367 8.00323 42.0993C7.98718 41.4619 8.12374 40.8299 8.40151 40.256C8.67929 39.6821 9.09024 39.1829 9.60009 38.8V38.8Z" fill="#3D9AE2"></path><path d="M30 12H28V17.81H30V12Z" fill="#3D9AE2"></path><path d="M38.3289 28.987C38.8812 28.9426 39.4182 28.7841 39.9059 28.5213C40.3937 28.2585 40.8215 27.8973 41.1623 27.4605C41.5032 27.0237 41.7495 26.5209 41.8858 25.9839C42.0221 25.4469 42.0454 24.8874 41.9541 24.3409C41.8628 23.7945 41.659 23.2729 41.3557 22.8094C41.0523 22.3458 40.6559 21.9503 40.1916 21.648C39.7274 21.3456 39.2054 21.143 38.6587 21.053C38.112 20.963 37.5526 20.9875 37.0159 21.125C36.7053 20.8056 36.3651 20.5163 35.9999 20.261V9H33.9999V20.81C33.9998 20.9857 34.0459 21.1583 34.1337 21.3106C34.2215 21.4628 34.3478 21.5891 34.4999 21.677C35.0482 21.9968 35.5321 22.416 35.9269 22.913C36.0663 23.0878 36.2603 23.2109 36.4778 23.2625C36.6953 23.3142 36.9239 23.2915 37.1269 23.198C37.4002 23.0697 37.6981 23.0021 37.9999 23C38.5304 23 39.0391 23.2107 39.4142 23.5858C39.7892 23.9609 39.9999 24.4696 39.9999 25C39.9946 25.2818 39.9307 25.5594 39.8124 25.8152C39.694 26.071 39.5238 26.2994 39.3126 26.4859C39.1013 26.6725 38.8536 26.8131 38.5851 26.8988C38.3166 26.9846 38.0332 27.0136 37.7529 26.984C37.53 26.9632 37.3065 27.0178 37.1183 27.1391C36.9301 27.2604 36.7881 27.4414 36.7149 27.653C36.3227 28.7646 35.5502 29.7019 34.5341 30.2993C33.5179 30.8967 32.3233 31.116 31.1612 30.9182C29.9992 30.7205 28.9443 30.1186 28.1829 29.2187C27.4215 28.3188 27.0025 27.1788 26.9999 26C26.9999 25.7348 26.8946 25.4804 26.7071 25.2929C26.5195 25.1054 26.2652 25 25.9999 25C25.4695 25 24.9608 24.7893 24.5857 24.4142C24.2107 24.0391 23.9999 23.5304 23.9999 23C23.9999 22.4696 24.2107 21.9609 24.5857 21.5858C24.9608 21.2107 25.4695 21 25.9999 21C26.3098 20.9971 26.6159 21.0682 26.8928 21.2073C27.1696 21.3465 27.4093 21.5496 27.5919 21.8L29.2079 20.62C28.8406 20.1143 28.3579 19.7036 27.8 19.4218C27.242 19.1401 26.625 18.9955 25.9999 19C25.0207 18.999 24.0751 19.3573 23.3423 20.0069C22.6096 20.6565 22.1406 21.5524 22.0242 22.5247C21.9078 23.497 22.1522 24.4782 22.711 25.2824C23.2697 26.0866 24.1041 26.6579 25.0559 26.888C25.2483 28.3897 25.9223 29.7887 26.9769 30.8749C28.0315 31.9612 29.4099 32.6763 30.9053 32.9129C32.4008 33.1495 33.9326 32.8948 35.271 32.1872C36.6095 31.4796 37.6824 30.357 38.3289 28.988V28.987Z" fill="#3D9AE2"></path></svg>