<svg xmlns="http://www.w3.org/2000/svg" width="64" height="64" viewBox="0 0 64 64" fill="none"><path d="M46 55C46.2652 55 46.5196 55.1054 46.7071 55.2929C46.8946 55.4804 47 55.7348 47 56C47 56.2652 46.8946 56.5196 46.7071 56.7071C46.5196 56.8946 46.2652 57 46 57V55ZM46 55V57C45.7348 57 45.4804 56.8946 45.2929 56.7071C45.1054 56.5196 45 56.2652 45 56C45 55.7348 45.1054 55.4804 45.2929 55.2929C45.4804 55.1054 45.7348 55 46 55Z" fill="#BDDBFF"></path><path d="M46 25.9998V30.9998C42.0218 30.9998 38.2064 32.5802 35.3934 35.3932C32.5804 38.2063 31 42.0216 31 45.9998C31 49.9781 32.5804 53.7934 35.3934 56.6064C38.2064 59.4195 42.0218 60.9998 46 60.9998H27V39.9998H15V60.9998H10V25.9998L26.59 9.40984C26.775 9.22443 26.9948 9.07734 27.2368 8.97697C27.4787 8.87661 27.7381 8.82495 28 8.82495C28.2619 8.82495 28.5213 8.87661 28.7632 8.97697C29.0052 9.07734 29.225 9.22443 29.41 9.40984L46 25.9998ZM34 25.9998C34 24.8132 33.6481 23.6531 32.9888 22.6664C32.3295 21.6797 31.3925 20.9107 30.2961 20.4566C29.1997 20.0024 27.9933 19.8836 26.8295 20.1151C25.6656 20.3466 24.5965 20.9181 23.7574 21.7572C22.9182 22.5963 22.3468 23.6654 22.1153 24.8293C21.8838 25.9932 22.0026 27.1996 22.4567 28.2959C22.9108 29.3923 23.6799 30.3294 24.6666 30.9887C25.6533 31.6479 26.8133 31.9998 28 31.9998C29.5913 31.9998 31.1174 31.3677 32.2426 30.2425C33.3679 29.1173 34 27.5911 34 25.9998V25.9998Z" fill="#BDDBFF"></path><path d="M46 51C48.7614 51 51 48.7614 51 46C51 43.2386 48.7614 41 46 41C43.2386 41 41 43.2386 41 46C41 48.7614 43.2386 51 46 51Z" fill="#BDDBFF"></path><path d="M29.4101 3.40984C29.2251 3.22443 29.0053 3.07734 28.7634 2.97697C28.5214 2.87661 28.262 2.82495 28.0001 2.82495C27.7382 2.82495 27.4788 2.87661 27.2369 2.97697C26.9949 3.07734 26.7751 3.22443 26.5901 3.40984L3.5001 26.4998C3.10228 26.8977 2.87878 27.4372 2.87878 27.9998C2.87878 28.5624 3.10228 29.102 3.5001 29.4998C3.89793 29.8977 4.4375 30.1212 5.0001 30.1212C5.56271 30.1212 6.10228 29.8977 6.5001 29.4998L10.0001 25.9998L26.5901 9.40984C26.7751 9.22443 26.9949 9.07734 27.2369 8.97697C27.4788 8.87661 27.7382 8.82495 28.0001 8.82495C28.262 8.82495 28.5214 8.87661 28.7634 8.97697C29.0053 9.07734 29.2251 9.22443 29.4101 9.40984L46.0001 25.9998L49.0001 28.9998L52.0001 25.9998L29.4101 3.40984Z" fill="#BDDBFF"></path><path d="M27.29 4.1199C27.4812 3.93702 27.7355 3.83495 28 3.83495C28.2646 3.83495 28.5189 3.93702 28.71 4.1199L51.79 27.2099L53.21 25.7899L30.12 2.7099C29.5506 2.16141 28.7907 1.85498 28 1.85498C27.2094 1.85498 26.4495 2.16141 25.88 2.7099L2.79005 25.7899C2.20392 26.376 1.87463 27.171 1.87463 27.9999C1.87463 28.8288 2.20392 29.6238 2.79005 30.2099C3.37617 30.796 4.17114 31.1253 5.00005 31.1253C5.82896 31.1253 6.62392 30.796 7.21005 30.2099L9.00005 28.4099V60.9999C9.00005 61.2651 9.1054 61.5195 9.29294 61.707C9.48048 61.8945 9.73483 61.9999 10 61.9999H35V59.9999H28V39.9999C28 39.7347 27.8947 39.4803 27.7072 39.2928C27.5196 39.1053 27.2653 38.9999 27 38.9999H15C14.7348 38.9999 14.4805 39.1053 14.2929 39.2928C14.1054 39.4803 14 39.7347 14 39.9999V59.9999H11V26.4099L27.29 10.1199C27.4812 9.93702 27.7355 9.83495 28 9.83495C28.2646 9.83495 28.5189 9.93702 28.71 10.1199L48.29 29.7099L49.71 28.2899L30.12 8.7099C29.5506 8.16142 28.7907 7.85498 28 7.85498C27.2094 7.85498 26.4495 8.16142 25.88 8.7099L5.79005 28.7899C5.6863 28.8936 5.56314 28.9759 5.42759 29.0321C5.29204 29.0882 5.14676 29.1171 5.00005 29.1171C4.85333 29.1171 4.70805 29.0882 4.5725 29.0321C4.43695 28.9759 4.31379 28.8936 4.21005 28.7899C4.1063 28.6862 4.02401 28.563 3.96786 28.4275C3.91171 28.2919 3.88282 28.1466 3.88282 27.9999C3.88282 27.8532 3.91171 27.7079 3.96786 27.5724C4.02401 27.4368 4.1063 27.3136 4.21005 27.2099L27.29 4.1199ZM16 40.9999H26V59.9999H16V40.9999Z" fill="#3D9AE2"></path><path d="M20 48H18V52H20V48Z" fill="#3D9AE2"></path><path d="M21 26C21 27.3845 21.4105 28.7378 22.1797 29.889C22.9489 31.0401 24.0421 31.9373 25.3212 32.4672C26.6003 32.997 28.0078 33.1356 29.3656 32.8655C30.7235 32.5954 31.9708 31.9287 32.9497 30.9497C33.9287 29.9708 34.5954 28.7235 34.8655 27.3656C35.1356 26.0078 34.997 24.6003 34.4672 23.3212C33.9373 22.0421 33.0401 20.9489 31.889 20.1797C30.7378 19.4105 29.3845 19 28 19C26.1441 19.0021 24.3649 19.7403 23.0526 21.0526C21.7403 22.3649 21.0021 24.1441 21 26V26ZM33 26C33 26.9889 32.7068 27.9556 32.1573 28.7779C31.6079 29.6001 30.827 30.241 29.9134 30.6194C28.9998 30.9978 27.9945 31.0969 27.0245 30.9039C26.0546 30.711 25.1637 30.2348 24.4645 29.5355C23.7652 28.8363 23.289 27.9454 23.0961 26.9755C22.9031 26.0055 23.0022 25.0002 23.3806 24.0866C23.759 23.173 24.3999 22.3921 25.2221 21.8427C26.0444 21.2932 27.0111 21 28 21C29.3256 21.0016 30.5964 21.5289 31.5338 22.4662C32.4711 23.4036 32.9984 24.6744 33 26ZM46 30C42.8355 30 39.7421 30.9384 37.1109 32.6965C34.4797 34.4546 32.4289 36.9534 31.2179 39.8771C30.0069 42.8007 29.6901 46.0177 30.3074 49.1214C30.9248 52.2251 32.4487 55.0761 34.6863 57.3137C36.9239 59.5513 39.7749 61.0752 42.8786 61.6926C45.9823 62.3099 49.1993 61.9931 52.1229 60.7821C55.0466 59.5711 57.5454 57.5203 59.3035 54.8891C61.0616 52.2579 62 49.1645 62 46C61.9944 41.7582 60.3069 37.6918 57.3076 34.6924C54.3082 31.6931 50.2418 30.0056 46 30V30ZM46 60C43.3164 60.0042 40.6883 59.2359 38.4297 57.7867C36.171 56.3376 34.3772 54.2688 33.2626 51.8277C32.148 49.3865 31.7597 46.6761 32.144 44.0201C32.5283 41.3642 33.6691 38.8751 35.43 36.85L41.11 42.53C40.5871 43.2653 40.2383 44.11 40.09 45H37.72C37.4999 44.6187 37.1601 44.3207 36.7533 44.1522C36.3466 43.9838 35.8956 43.9542 35.4703 44.0681C35.045 44.1821 34.6693 44.4332 34.4012 44.7825C34.1332 45.1318 33.9879 45.5597 33.9879 46C33.9879 46.4403 34.1332 46.8682 34.4012 47.2175C34.6693 47.5668 35.045 47.8179 35.4703 47.9319C35.8956 48.0458 36.3466 48.0162 36.7533 47.8478C37.1601 47.6793 37.4999 47.3813 37.72 47H40.09C40.2383 47.89 40.5871 48.7347 41.11 49.47L39.44 51.15C39.0146 51.0352 38.5633 51.0641 38.1561 51.2322C37.7488 51.4003 37.4085 51.6981 37.1879 52.0795C36.9672 52.4608 36.8787 52.9043 36.936 53.3412C36.9934 53.778 37.1933 54.1836 37.5048 54.4952C37.8164 54.8067 38.222 55.0066 38.6588 55.064C39.0957 55.1213 39.5392 55.0328 39.9205 54.8121C40.3019 54.5915 40.5997 54.2512 40.7678 53.8439C40.9359 53.4367 40.9648 52.9854 40.85 52.56L42.53 50.89C43.2653 51.4129 44.11 51.7617 45 51.91V54.28C44.6187 54.5001 44.3207 54.8399 44.1522 55.2467C43.9838 55.6534 43.9542 56.1044 44.0681 56.5297C44.1821 56.955 44.4332 57.3307 44.7825 57.5988C45.1318 57.8668 45.5597 58.0121 46 58.0121C46.4403 58.0121 46.8682 57.8668 47.2175 57.5988C47.5668 57.3307 47.8179 56.955 47.9319 56.5297C48.0458 56.1044 48.0162 55.6534 47.8478 55.2467C47.6793 54.8399 47.3813 54.5001 47 54.28V51.91C47.89 51.7617 48.7347 51.4129 49.47 50.89L55.15 56.57C52.6152 58.7824 49.3645 60.0009 46 60ZM48.71 44.71L49.43 43.98C49.8028 44.5878 50.0001 45.287 50.0001 46C50.0001 46.713 49.8028 47.4122 49.43 48.02L43.98 42.57C44.5878 42.1972 45.287 41.9999 46 41.9999C46.713 41.9999 47.4122 42.1972 48.02 42.57L47.29 43.29L48.71 44.71ZM48.02 49.43C47.4122 49.8028 46.713 50.0001 46 50.0001C45.287 50.0001 44.5878 49.8028 43.98 49.43L44.71 48.71L43.29 47.29L42.57 48.02C42.1972 47.4122 41.9999 46.713 41.9999 46C41.9999 45.287 42.1972 44.5878 42.57 43.98L48.02 49.43ZM56.57 55.15L50.89 49.47C51.4129 48.7347 51.7617 47.89 51.91 47H54.28C54.5001 47.3813 54.8399 47.6793 55.2467 47.8478C55.6534 48.0162 56.1044 48.0458 56.5297 47.9319C56.955 47.8179 57.3307 47.5668 57.5988 47.2175C57.8668 46.8682 58.0121 46.4403 58.0121 46C58.0121 45.5597 57.8668 45.1318 57.5988 44.7825C57.3307 44.4332 56.955 44.1821 56.5297 44.0681C56.1044 43.9542 55.6534 43.9838 55.2467 44.1522C54.8399 44.3207 54.5001 44.6187 54.28 45H51.91C51.7617 44.11 51.4129 43.2653 50.89 42.53L52.56 40.85C52.7253 40.9009 52.897 40.9279 53.07 40.93C53.6027 40.9287 54.1132 40.7165 54.49 40.34C54.8617 39.9628 55.07 39.4545 55.07 38.925C55.07 38.3955 54.8617 37.8872 54.49 37.51C54.1121 37.1398 53.6041 36.9324 53.075 36.9324C52.5459 36.9324 52.0379 37.1398 51.66 37.51C51.4134 37.7588 51.2365 38.0681 51.147 38.4068C51.0575 38.7455 51.0585 39.1018 51.15 39.44L49.47 41.11C48.7347 40.5871 47.89 40.2383 47 40.09V37.72C47.3813 37.4999 47.6793 37.1601 47.8478 36.7533C48.0162 36.3466 48.0458 35.8956 47.9319 35.4703C47.8179 35.045 47.5668 34.6693 47.2175 34.4012C46.8682 34.1332 46.4403 33.9879 46 33.9879C45.5597 33.9879 45.1318 34.1332 44.7825 34.4012C44.4332 34.6693 44.1821 35.045 44.0681 35.4703C43.9542 35.8956 43.9838 36.3466 44.1522 36.7533C44.3207 37.1601 44.6187 37.4999 45 37.72V40.09C44.11 40.2383 43.2653 40.5871 42.53 41.11L36.85 35.43C39.5204 33.1077 42.9722 31.8848 46.5089 32.008C50.0457 32.1311 53.4041 33.5912 55.9064 36.0936C58.4088 38.5959 59.8689 41.9543 59.992 45.4911C60.1152 49.0278 58.8923 52.4796 56.57 55.15V55.15Z" fill="#3D9AE2"></path></svg>