<svg xmlns="http://www.w3.org/2000/svg" width="64" height="64" viewBox="0 0 64 64" fill="none"><path d="M53 51H44V55H53C53.2652 55 53.5196 54.8946 53.7071 54.7071C53.8946 54.5196 54 54.2652 54 54V52C54 51.7348 53.8946 51.4804 53.7071 51.2929C53.5196 51.1054 53.2652 51 53 51Z" fill="#BDDBFF"></path><path d="M20 51H12V49.32C11.9994 46.8761 12.7451 44.4903 14.1372 42.4817C15.5293 40.4731 17.5015 38.9374 19.79 38.08L28 35C28 36.0609 28.4214 37.0783 29.1716 37.8284C29.9217 38.5786 30.9391 39 32 39C33.0609 39 34.0783 38.5786 34.8284 37.8284C35.5786 37.0783 36 36.0609 36 35L44.21 38.08C46.4985 38.9374 48.4707 40.4731 49.8628 42.4817C51.2549 44.4903 52.0006 46.8761 52 49.32V51H44V61H20V51ZM44 9V14L42 16H40.47C39.7274 15.9982 38.9997 15.7908 38.3678 15.4007C37.7359 15.0106 37.2244 14.4531 36.89 13.79L36 12L33.74 13.81C31.9662 15.2292 29.7617 16.0016 27.49 16H22L17 13L20 9L16 3H38C39.5913 3 41.1174 3.63214 42.2426 4.75736C43.3679 5.88258 44 7.4087 44 9ZM32 23C29.9631 23.0513 27.9434 23.3879 26 24V31C26.0016 31.5299 26.2128 32.0377 26.5875 32.4125C26.9623 32.7872 27.4701 32.9984 28 33H36C36.5299 32.9984 37.0377 32.7872 37.4125 32.4125C37.7872 32.0377 37.9984 31.5299 38 31V24C36.0566 23.3879 34.0369 23.0513 32 23Z" fill="#BDDBFF"></path><path d="M12 51H11C10.7348 51 10.4804 51.1054 10.2929 51.2929C10.1054 51.4804 10 51.7348 10 52V54C10 54.2652 10.1054 54.5196 10.2929 54.7071C10.4804 54.8946 10.7348 55 11 55H20V51H12Z" fill="#BDDBFF"></path><path d="M29 19H27V21H29V19Z" fill="#3D9AE2"></path><path d="M37 19H35V21H37V19Z" fill="#3D9AE2"></path><path d="M53 50V49.32C52.9907 46.6743 52.179 44.0936 50.6721 41.9189C49.1651 39.7443 47.0339 38.0779 44.56 37.14L37 34.31V33.82C37.5021 33.6419 37.9476 33.3329 38.2904 32.9251C38.6332 32.5172 38.8609 32.0253 38.95 31.5C40.0851 30.5823 41.0235 29.4451 41.709 28.1565C42.3946 26.8678 42.8132 25.4542 42.94 24H43C44.0253 24.0004 45.0113 23.606 45.7535 22.8987C46.4957 22.1913 46.9371 21.2253 46.9859 20.2012C47.0348 19.1771 46.6875 18.1735 46.0161 17.3987C45.3446 16.6239 44.4006 16.1373 43.38 16.04L44.71 14.71C44.8942 14.5193 44.998 14.2651 45 14V9.00002C44.9979 7.14416 44.2597 5.36491 42.9474 4.05262C41.6351 2.74032 39.8559 2.00214 38 2.00002H16C15.8187 1.99874 15.6406 2.04755 15.4853 2.14107C15.3301 2.2346 15.2036 2.3692 15.12 2.53002C15.0319 2.68763 14.9898 2.86684 14.9987 3.0472C15.0075 3.22756 15.0669 3.4018 15.17 3.55002L18.78 8.97003L16.2 12.4C16.1158 12.5124 16.0561 12.6412 16.025 12.7781C15.9939 12.9151 15.9919 13.057 16.0193 13.1947C16.0466 13.3325 16.1027 13.4629 16.1838 13.5775C16.2649 13.6921 16.3692 13.7884 16.49 13.86L20.19 16.08C19.217 16.2776 18.3523 16.8299 17.7639 17.6296C17.1755 18.4294 16.9056 19.4193 17.0066 20.407C17.1076 21.3947 17.5724 22.3095 18.3104 22.9736C19.0485 23.6377 20.0072 24.0035 21 24H21.05C21.2749 26.5629 22.3976 28.9641 24.22 30.78C24.48 31.03 24.77 31.26 25.05 31.49C25.1404 32.016 25.3684 32.5086 25.7109 32.9179C26.0534 33.3272 26.4982 33.6384 27 33.82V34.31L19.44 37.14C16.9661 38.0779 14.8349 39.7443 13.3279 41.9189C11.821 44.0936 11.0093 46.6743 11 49.32V50C10.4701 50.0016 9.96227 50.2128 9.58753 50.5876C9.2128 50.9623 9.00158 51.4701 9 52V54C9.00158 54.53 9.2128 55.0378 9.58753 55.4125C9.96227 55.7872 10.4701 55.9984 11 56V61C11 61.2652 11.1054 61.5196 11.2929 61.7071C11.4804 61.8947 11.7348 62 12 62H52C52.2652 62 52.5196 61.8947 52.7071 61.7071C52.8946 61.5196 53 61.2652 53 61V56C53.5299 55.9984 54.0377 55.7872 54.4125 55.4125C54.7872 55.0378 54.9984 54.53 55 54V52C54.9984 51.4701 54.7872 50.9623 54.4125 50.5876C54.0377 50.2128 53.5299 50.0016 53 50V50ZM37 31C37 31.2652 36.8946 31.5196 36.7071 31.7071C36.5196 31.8947 36.2652 32 36 32H28C27.7348 32 27.4804 31.8947 27.2929 31.7071C27.1054 31.5196 27 31.2652 27 31V24.75C28.6285 24.2907 30.3084 24.0387 32 24C33.6916 24.0387 35.3715 24.2907 37 24.75V31ZM35 34V35C35 35.7957 34.6839 36.5587 34.1213 37.1213C33.5587 37.684 32.7956 38 32 38C31.2044 38 30.4413 37.684 29.8787 37.1213C29.3161 36.5587 29 35.7957 29 35V34H35ZM41 23C41.0085 25.0583 40.3015 27.0555 39 28.65V24.27L41 20.77V23ZM45 20C44.9984 20.53 44.7872 21.0378 44.4125 21.4125C44.0377 21.7872 43.5299 21.9984 43 22V18C43.5299 18.0016 44.0377 18.2128 44.4125 18.5876C44.7872 18.9623 44.9984 19.4701 45 20V20ZM21 22C20.4696 22 19.9609 21.7893 19.5858 21.4142C19.2107 21.0392 19 20.5305 19 20C19 19.4696 19.2107 18.9609 19.5858 18.5858C19.9609 18.2107 20.4696 18 21 18V22ZM18.47 12.71L20.8 9.60003C20.9239 9.43522 20.9933 9.23592 20.9987 9.02982C21.0041 8.82372 20.9451 8.62106 20.83 8.45002L17.87 4.00002H38C39.3261 4.00002 40.5979 4.52681 41.5355 5.46449C42.4732 6.40217 43 7.67394 43 9.00002V13.59L41.59 15H40.47C39.913 15.0006 39.3668 14.8455 38.8933 14.5522C38.4197 14.2589 38.0376 13.839 37.79 13.34L36.89 11.55C36.8237 11.4163 36.7282 11.2992 36.6105 11.2075C36.4927 11.1157 36.3559 11.0516 36.21 11.02C36.1406 11.0084 36.0704 11.0017 36 11C35.7744 11.0013 35.5559 11.0789 35.38 11.22L33.11 13.03C31.5134 14.3035 29.5322 14.998 27.49 15H22.28L18.47 12.71ZM25 28.65C23.7029 27.053 22.9965 25.0574 23 23V20.77L25 24.27V28.65ZM26.48 22.82L23.15 17H27.49C29.9865 16.9957 32.408 16.1463 34.36 14.59L35.66 13.55L36 14.24C36.4137 15.071 37.0515 15.7698 37.8414 16.2575C38.6312 16.7452 39.5417 17.0024 40.47 17H40.85L37.52 22.82C35.7227 22.3116 33.8675 22.036 32 22C30.1325 22.036 28.2773 22.3116 26.48 22.82V22.82ZM19 60H13V56H19V60ZM19 54H11V52H19V54ZM43 60H21V47H19V50H13V49.32C13.0073 47.0821 13.6938 44.8992 14.9687 43.06C16.2436 41.2208 18.0469 39.812 20.14 39.02L27.21 36.36C27.5012 37.4066 28.1272 38.329 28.9922 38.9861C29.8572 39.6433 30.9137 39.9991 32 39.9991C33.0863 39.9991 34.1428 39.6433 35.0078 38.9861C35.8728 38.329 36.4988 37.4066 36.79 36.36L43.86 39.02C45.9531 39.812 47.7563 41.2208 49.0313 43.06C50.3062 44.8992 50.9927 47.0821 51 49.32V50H45V47H43V60ZM51 60H45V56H51V60ZM53 54H45V52H53V54Z" fill="#3D9AE2"></path></svg>