<svg xmlns="http://www.w3.org/2000/svg" width="64" height="64" viewBox="0 0 64 64" fill="none"><path d="M61 17V35L56 40H50L46.33 31.98C47.3462 31.8793 48.2854 31.3939 48.9551 30.6231C49.6249 29.8522 49.9745 28.8545 49.9323 27.8342C49.8901 26.8139 49.4593 25.8485 48.7282 25.1356C47.9971 24.4227 47.021 24.0164 46 24H44V16H27C25.4087 16 23.8826 15.3679 22.7574 14.2426C21.6321 13.1174 21 11.5913 21 10V5H49C52.1826 5 55.2348 6.26428 57.4853 8.51472C59.7357 10.7652 61 13.8174 61 17Z" fill="#BDDBFF"></path><path d="M40.0001 30C40.0001 30.5304 39.7894 31.0391 39.4143 31.4142C39.0393 31.7893 38.5305 32 38.0001 32C37.4697 32 36.961 31.7893 36.5859 31.4142C36.2108 31.0391 36.0001 30.5304 36.0001 30C36.0001 28.9 38.0001 26 38.0001 26C38.0001 26 40.0001 28.9 40.0001 30ZM11.8301 31.17C12.4869 31.8249 12.8961 32.6874 12.9882 33.6103C13.0802 34.5333 12.8493 35.4596 12.3348 36.2313C11.8203 37.003 11.054 37.5724 10.1667 37.8424C9.27932 38.1124 8.32579 38.0663 7.46864 37.7119C6.61149 37.3576 5.90377 36.7169 5.46614 35.8991C5.02851 35.0813 4.88805 34.1371 5.06872 33.2273C5.24938 32.3176 5.73998 31.4986 6.45688 30.9101C7.17378 30.3216 8.0726 30 9.00011 30C10.0608 30.0019 11.0778 30.4224 11.8301 31.17V31.17Z" fill="#BDDBFF"></path><path d="M49 4H21C20.7348 4 20.4804 4.10536 20.2929 4.29289C20.1054 4.48043 20 4.73478 20 5V10C20.0023 11.6833 20.6112 13.3095 21.715 14.5804C22.8188 15.8513 24.3436 16.6819 26.01 16.92C25.3821 18.7671 25.0415 20.6996 25 22.65L18.52 30.76C18.2851 31.0535 18.1379 31.4074 18.0955 31.7809C18.0531 32.1544 18.1171 32.5323 18.2802 32.871C18.4432 33.2097 18.6987 33.4954 19.0172 33.6952C19.3357 33.8949 19.7041 34.0006 20.08 34H23V37C23 37.2652 23.1054 37.5196 23.2929 37.7071C23.4804 37.8946 23.7348 38 24 38H33V42H24C23.7348 42 23.4804 42.1054 23.2929 42.2929C23.1054 42.4804 23 42.7348 23 43V45C23 46.3261 23.5268 47.5979 24.4645 48.5355C25.4021 49.4732 26.6739 50 28 50H35V57C35 57.2652 35.1054 57.5196 35.2929 57.7071C35.4804 57.8946 35.7348 58 36 58H54C54.2652 58 54.5196 57.8946 54.7071 57.7071C54.8946 57.5196 55 57.2652 55 57V41H56C56.2651 40.998 56.5193 40.8942 56.71 40.71L61.71 35.71C61.8942 35.5193 61.998 35.2651 62 35V17C61.9968 13.5532 60.6262 10.2484 58.1889 7.81112C55.7516 5.37384 52.4468 4.00318 49 4V4ZM53 56H37V49C37 48.7348 36.8946 48.4804 36.7071 48.2929C36.5196 48.1054 36.2652 48 36 48H28C27.2051 47.9976 26.4434 47.6808 25.8813 47.1187C25.3192 46.5566 25.0024 45.7949 25 45V44H34C34.2652 44 34.5196 43.8946 34.7071 43.7071C34.8946 43.5196 35 43.2652 35 43V37C35 36.7348 34.8946 36.4804 34.7071 36.2929C34.5196 36.1054 34.2652 36 34 36H25V33C25 32.7348 24.8946 32.4804 24.7071 32.2929C24.5196 32.1054 24.2652 32 24 32H20.08L26.78 23.62C26.9228 23.445 27.0005 23.2259 27 23C27.0036 20.9493 27.3798 18.9163 28.11 17H43V24C43 24.2652 43.1054 24.5196 43.2929 24.7071C43.4804 24.8946 43.7348 25 44 25H46C46.7589 25.0216 47.4814 25.3301 48.0219 25.8633C48.5623 26.3966 48.8804 27.1149 48.9121 27.8735C48.9439 28.632 48.6868 29.3744 48.1928 29.9509C47.6987 30.5274 47.0045 30.8952 46.25 30.98C46.0894 30.9939 45.9346 31.0461 45.7984 31.1322C45.6622 31.2184 45.5487 31.336 45.4673 31.4751C45.386 31.6142 45.3393 31.7708 45.331 31.9318C45.3228 32.0927 45.3533 32.2533 45.42 32.4L49.09 40.42C49.1703 40.5936 49.2988 40.7405 49.4601 40.8433C49.6213 40.9461 49.8087 41.0005 50 41H53V56ZM60 34.59L55.59 39H50.64L47.75 32.68C48.8452 32.2681 49.7613 31.4852 50.3387 30.4675C50.9162 29.4499 51.1184 28.2619 50.9103 27.1105C50.7021 25.9591 50.0967 24.9171 49.1995 24.166C48.3023 23.415 47.1701 23.0023 46 23H45V16C45 15.7348 44.8946 15.4804 44.7071 15.2929C44.5196 15.1054 44.2652 15 44 15H27C25.6739 15 24.4021 14.4732 23.4645 13.5355C22.5268 12.5979 22 11.3261 22 10V6H49C51.9168 6.00185 54.7136 7.16137 56.7761 9.22387C58.8386 11.2864 59.9981 14.0832 60 17V34.59Z" fill="#3D9AE2"></path><path d="M32.445 20.168L29.445 22.168C29.308 22.2593 29.1957 22.383 29.1181 22.5282C29.0404 22.6733 28.9998 22.8354 28.9998 23C28.9998 23.1646 29.0404 23.3266 29.1181 23.4718C29.1957 23.6169 29.308 23.7406 29.445 23.832L32.445 25.832L33.555 24.168L31.8 23L33.552 21.832L32.445 20.168ZM13.167 31.247L14.657 29.757L13.243 28.343L11.753 29.833C11.2214 29.478 10.6261 29.2291 10 29.1V27H8V29.1C7.37397 29.2288 6.77872 29.4773 6.247 29.832L4.757 28.342L3.343 29.757L4.833 31.247C4.478 31.7786 4.22911 32.3739 4.1 33H2V35H4.1C4.2288 35.626 4.47736 36.2212 4.832 36.753L3.342 38.243L4.756 39.657L6.246 38.167C6.77795 38.5221 7.37355 38.771 8 38.9V41H10V38.9C10.626 38.7712 11.2213 38.5226 11.753 38.168L13.243 39.658L14.657 38.244L13.167 36.754C13.5221 36.222 13.771 35.6264 13.9 35H16V33H13.9C13.7709 32.3739 13.522 31.7786 13.167 31.247ZM9 37C8.40666 37 7.82664 36.824 7.33329 36.4944C6.83994 36.1647 6.45542 35.6962 6.22836 35.148C6.0013 34.5998 5.94189 33.9966 6.05764 33.4147C6.1734 32.8328 6.45912 32.2982 6.87868 31.8786C7.29824 31.4591 7.83279 31.1734 8.41473 31.0576C8.99667 30.9419 9.59987 31.0013 10.1481 31.2283C10.6962 31.4554 11.1648 31.8399 11.4944 32.3333C11.8241 32.8266 12 33.4066 12 34C12 34.7956 11.6839 35.5587 11.1213 36.1213C10.5587 36.6839 9.79565 37 9 37Z" fill="#3D9AE2"></path><path d="M10 33H8V35H10V33Z" fill="#3D9AE2"></path><path d="M12.433 50.981L13.242 50.172L11.828 48.758L11.019 49.567C10.7011 49.3779 10.358 49.2348 10 49.142V48H8V49.142C7.64196 49.2348 7.29889 49.3779 6.981 49.567L6.172 48.758L4.758 50.172L5.567 50.981C5.37791 51.2989 5.23482 51.642 5.142 52H4V54H5.142C5.23482 54.358 5.37791 54.7011 5.567 55.019L4.758 55.828L6.172 57.242L6.981 56.433C7.29889 56.6221 7.64196 56.7652 8 56.858V58H10V56.858C10.358 56.7652 10.7011 56.6221 11.019 56.433L11.828 57.242L13.242 55.828L12.433 55.019C12.6221 54.7011 12.7652 54.358 12.858 54H14V52H12.858C12.7652 51.642 12.6221 51.2989 12.433 50.981V50.981ZM9 55C8.60444 55 8.21776 54.8827 7.88886 54.6629C7.55996 54.4432 7.30362 54.1308 7.15224 53.7654C7.00087 53.3999 6.96126 52.9978 7.03843 52.6098C7.1156 52.2219 7.30608 51.8655 7.58579 51.5858C7.86549 51.3061 8.22186 51.1156 8.60982 51.0384C8.99778 50.9613 9.39991 51.0009 9.76537 51.1522C10.1308 51.3036 10.4432 51.56 10.6629 51.8889C10.8827 52.2178 11 52.6044 11 53C11 53.5304 10.7893 54.0391 10.4142 54.4142C10.0391 54.7893 9.53043 55 9 55Z" fill="#3D9AE2"></path><path d="M21 40H19V42H21V40Z" fill="#3D9AE2"></path><path d="M16 45H14V47H16V45Z" fill="#3D9AE2"></path><path d="M14 41H12V43H14V41Z" fill="#3D9AE2"></path><path d="M10 44H8V46H10V44Z" fill="#3D9AE2"></path><path d="M20 48H18V50H20V48Z" fill="#3D9AE2"></path><path d="M37.177 25.4321C36.522 26.3801 35 28.7221 35 30.0001C35 30.7957 35.3161 31.5588 35.8787 32.1214C36.4413 32.684 37.2044 33.0001 38 33.0001C38.7956 33.0001 39.5587 32.684 40.1213 32.1214C40.6839 31.5588 41 30.7957 41 30.0001C41 28.7221 39.478 26.3801 38.823 25.4321C38.7261 25.3059 38.6014 25.2038 38.4587 25.1335C38.316 25.0632 38.1591 25.0266 38 25.0266C37.8409 25.0266 37.684 25.0632 37.5413 25.1335C37.3986 25.2038 37.2739 25.3059 37.177 25.4321ZM38 31.0001C37.7348 31.0001 37.4804 30.8947 37.2929 30.7072C37.1054 30.5196 37 30.2653 37 30.0001C37.2168 29.2357 37.5544 28.5109 38 27.8531C38.4455 28.5109 38.7831 29.2357 39 30.0001C39 30.2653 38.8946 30.5196 38.7071 30.7072C38.5196 30.8947 38.2652 31.0001 38 31.0001Z" fill="#3D9AE2"></path></svg>